<?xml version="1.0" standalone="no"?>
<!DOCTYPE svg PUBLIC "-//W3C//DTD SVG 20010904//EN"
 "http://www.w3.org/TR/2001/REC-SVG-20010904/DTD/svg10.dtd">
<svg version="1.0" xmlns="http://www.w3.org/2000/svg"
 width="500.000000pt" height="500.000000pt" viewBox="0 0 500.000000 500.000000"
 preserveAspectRatio="xMidYMid meet">
<metadata>
Created by potrace 1.14, written by Peter Selinger 2001-2017
</metadata>
<g transform="translate(0.000000,500.000000) scale(0.100000,-0.100000)"
fill="#000000" stroke="none">
<path d="M2300 3983 c-48 -19 -56 -52 -54 -236 1 -143 2 -150 26 -173 37 -38
84 -39 119 -4 l29 28 0 162 c0 162 -5 191 -39 217 -17 13 -56 16 -81 6z"/>
<path d="M2620 3983 c-41 -16 -63 -79 -43 -121 39 -81 163 -52 165 38 2 57
-67 104 -122 83z"/>
<path d="M1266 3963 c-65 -19 -138 -93 -156 -159 -10 -34 -13 -125 -13 -334
l1 -287 27 -61 c19 -42 39 -69 65 -87 72 -50 104 -54 427 -52 285 2 300 3 345
24 57 28 115 93 131 150 20 68 16 616 -5 664 -25 58 -103 127 -162 143 -73 21
-589 20 -660 -1z m617 -167 c42 -19 47 -52 47 -309 0 -257 -6 -298 -44 -319
-14 -9 -99 -13 -276 -14 -280 -2 -309 3 -328 54 -12 30 -10 527 2 553 7 16 35
33 66 41 27 8 515 2 533 -6z"/>
<path d="M1434 3668 c-35 -16 -41 -45 -39 -193 3 -177 0 -162 34 -183 26 -16
123 -20 312 -13 49 2 61 38 61 175 0 169 -1 179 -18 201 -14 18 -27 20 -172
21 -86 1 -167 -3 -178 -8z"/>
<path d="M3074 3966 c-42 -15 -94 -52 -123 -88 -48 -60 -53 -92 -53 -403 -1
-278 0 -293 21 -340 28 -63 54 -90 116 -123 l50 -27 315 0 c301 0 317 1 361
22 59 27 85 54 117 122 25 55 25 55 25 351 0 273 -2 300 -20 341 -28 62 -63
100 -119 129 -49 25 -50 25 -354 26 -200 1 -316 -3 -336 -10z m612 -173 c40
-23 44 -54 42 -329 -3 -277 -3 -276 -53 -301 -12 -6 -127 -9 -282 -9 l-263 1
-27 28 -28 27 -2 248 c-1 136 0 259 3 274 6 33 33 64 59 70 11 2 135 3 275 3
177 0 261 -4 276 -12z"/>
<path d="M3224 3658 c-23 -19 -24 -23 -24 -168 0 -158 8 -195 44 -207 12 -3
88 -6 170 -6 200 2 191 -8 192 199 1 145 0 157 -19 175 -26 24 -13 22 -190 24
-132 1 -151 0 -173 -17z"/>
<path d="M2624 3700 c-43 -17 -54 -48 -54 -150 0 -52 4 -99 8 -105 34 -47 95
-55 134 -18 27 26 28 31 28 121 0 104 -7 125 -50 147 -33 17 -36 17 -66 5z"/>
<path d="M2290 3427 c-14 -7 -30 -28 -36 -47 -19 -58 10 -107 70 -117 44 -7
74 11 92 53 12 29 12 39 0 68 -8 18 -18 36 -23 39 -22 14 -80 16 -103 4z"/>
<path d="M2435 3265 c-69 -68 14 -181 102 -138 56 27 68 84 27 132 -34 41 -92
44 -129 6z"/>
<path d="M1965 2889 c-225 -27 -352 -183 -341 -419 5 -95 16 -132 59 -203 79
-129 247 -191 442 -163 l50 7 44 -65 c54 -83 62 -84 149 -33 29 18 55 39 58
49 3 10 -13 43 -40 81 -43 63 -43 66 -26 85 25 27 55 88 73 150 33 108 6 277
-58 374 -42 63 -158 124 -255 134 -25 3 -56 6 -70 8 -14 1 -52 -1 -85 -5z
m174 -194 c69 -35 104 -111 100 -219 -4 -111 -16 -117 -69 -33 -16 26 -36 47
-45 47 -27 0 -157 -89 -149 -103 4 -6 22 -33 41 -58 18 -26 33 -49 33 -53 0
-13 -67 -5 -105 13 -52 24 -81 53 -100 98 -17 40 -21 126 -10 186 9 46 75 118
125 134 43 15 141 8 179 -12z"/>
<path d="M2580 2870 c-12 -8 -15 -64 -15 -370 0 -273 3 -364 12 -372 7 -5 47
-10 89 -11 101 -1 102 1 100 149 -1 104 1 117 18 126 14 8 21 7 27 -3 4 -8 35
-52 69 -99 35 -47 74 -102 89 -122 31 -45 47 -50 157 -51 114 -1 125 15 62 93
-15 19 -57 74 -91 121 l-64 87 36 11 c44 13 101 63 126 111 22 42 25 138 6
193 -16 48 -63 94 -120 120 -41 18 -70 20 -266 23 -121 2 -227 -1 -235 -6z
m378 -165 c57 -14 71 -88 26 -130 -25 -23 -35 -25 -123 -25 l-96 0 1 76 c1 42
6 79 12 82 12 8 144 6 180 -3z"/>
<path d="M1299 2831 c-31 -31 -36 -59 -17 -94 17 -34 39 -46 80 -47 28 0 42 7
62 31 34 40 32 83 -7 115 -39 33 -81 31 -118 -5z"/>
<path d="M3416 2829 c-35 -42 -33 -74 8 -115 30 -30 36 -33 67 -24 77 22 101
99 46 146 -41 35 -88 32 -121 -7z"/>
<path d="M1158 2718 c-35 -12 -62 -67 -48 -102 25 -67 86 -85 139 -40 74 62 3
173 -91 142z"/>
<path d="M3775 2716 c-31 -13 -55 -51 -55 -86 0 -10 11 -31 24 -47 35 -40 95
-39 130 2 30 35 31 46 10 90 -10 21 -27 38 -46 44 -17 6 -31 11 -32 11 -1 -1
-15 -7 -31 -14z"/>
<path d="M1324 2576 c-37 -16 -59 -62 -49 -106 7 -33 35 -56 76 -63 32 -6 84
32 93 68 10 38 -19 91 -56 104 -17 6 -31 11 -32 11 -1 -1 -15 -7 -32 -14z"/>
<path d="M3452 2578 c-52 -14 -62 -50 -62 -232 0 -152 0 -155 26 -185 16 -19
35 -31 50 -31 36 0 78 25 90 52 16 37 11 342 -6 362 -25 31 -62 44 -98 34z"/>
<path d="M3748 2409 c-26 -25 -30 -35 -25 -65 8 -50 53 -87 95 -79 106 20 103
163 -4 171 -29 3 -42 -3 -66 -27z"/>
<path d="M1153 2289 c-28 -10 -56 -64 -49 -93 3 -12 15 -31 26 -44 19 -20 30
-22 138 -22 128 0 154 9 173 57 11 29 -12 87 -39 99 -24 10 -223 13 -249 3z"/>
<path d="M3587 2137 c-37 -34 -40 -94 -6 -126 62 -57 149 -20 149 64 0 37 -10
55 -41 70 -40 21 -74 19 -102 -8z"/>
<path d="M2958 2005 c-36 -20 -48 -44 -48 -99 0 -51 -9 -61 -36 -41 -48 36
-128 2 -140 -61 -9 -46 35 -94 85 -94 25 0 44 7 56 20 36 40 66 17 39 -29 -22
-38 -12 -93 21 -115 14 -9 45 -16 74 -16 53 0 61 -8 61 -61 0 -55 64 -92 119
-69 41 16 51 49 50 151 -1 112 -19 140 -87 141 -65 1 -72 13 -72 128 0 88 -2
102 -22 124 -29 32 -66 40 -100 21z"/>
<path d="M3354 2012 c-71 -2 -84 -6 -104 -27 -45 -47 -17 -133 44 -136 122 -6
215 0 239 16 47 30 48 101 3 130 -27 18 -64 21 -182 17z"/>
<path d="M3771 1999 c-31 -19 -53 -56 -44 -72 3 -5 2 -19 -1 -33 -6 -23 -9
-24 -56 -18 -45 6 -51 4 -80 -24 -37 -38 -38 -70 -4 -111 32 -38 85 -43 120
-10 l23 21 22 -21 c33 -30 89 -28 119 4 21 22 24 37 27 113 3 96 -7 134 -40
150 -43 20 -55 20 -86 1z"/>
<path d="M1270 2001 c-77 -24 -118 -62 -151 -136 -21 -48 -22 -62 -22 -340 0
-160 5 -306 10 -326 25 -87 100 -159 183 -174 44 -9 572 -8 622 0 74 13 164
98 186 176 15 56 12 585 -4 639 -17 57 -64 114 -117 143 -41 21 -52 22 -362
24 -176 1 -331 -2 -345 -6z m636 -194 l24 -28 0 -264 0 -264 -24 -28 -24 -28
-281 0 c-279 0 -281 0 -303 23 -23 22 -23 26 -24 292 -1 288 1 301 50 319 11
5 142 8 289 7 l269 -1 24 -28z"/>
<path d="M1434 1708 c-35 -16 -40 -45 -39 -202 1 -196 -9 -186 207 -186 212 0
203 -9 202 199 -2 207 6 199 -197 199 -84 0 -162 -4 -173 -10z"/>
<path d="M2304 1879 c-42 -12 -68 -64 -54 -106 11 -29 55 -63 84 -63 77 0 113
94 57 151 -31 31 -38 32 -87 18z"/>
<path d="M2622 1734 c-20 -8 -38 -25 -46 -45 -34 -81 48 -154 122 -109 91 56
22 196 -76 154z"/>
<path d="M3425 1718 c-36 -32 -43 -85 -16 -119 60 -77 188 -8 151 81 -25 61
-88 78 -135 38z"/>
<path d="M2315 1591 c-73 -21 -93 -91 -39 -138 23 -21 35 -23 138 -23 98 0
115 3 133 20 43 40 42 97 -4 127 -20 13 -49 18 -117 19 -50 0 -100 -2 -111 -5z"/>
<path d="M2759 1571 c-44 -45 -34 -107 24 -134 86 -42 166 77 93 139 -38 33
-80 31 -117 -5z"/>
<path d="M3774 1590 c-26 -10 -54 -48 -54 -72 0 -42 50 -97 85 -93 60 6 102
57 89 109 -12 48 -73 77 -120 56z"/>
<path d="M2595 1434 c-30 -32 -35 -61 -18 -96 35 -72 140 -61 162 17 23 83
-85 142 -144 79z"/>
<path d="M3437 1450 c-32 -20 -44 -61 -42 -150 0 -47 7 -95 13 -107 26 -48 81
-56 126 -20 28 23 29 27 31 118 2 91 -4 119 -31 147 -19 18 -75 25 -97 12z"/>
<path d="M2977 1319 c-55 -15 -67 -41 -67 -151 0 -97 1 -100 29 -129 43 -42
104 -34 132 18 16 30 16 192 0 222 -17 31 -61 50 -94 40z"/>
<path d="M2275 1295 c-14 -13 -25 -30 -26 -37 -1 -18 -1 -170 0 -186 1 -7 12
-24 26 -37 34 -35 88 -34 120 1 23 25 25 35 25 129 0 94 -2 104 -25 129 -32
35 -86 36 -120 1z"/>
<path d="M2603 1162 c-63 -48 -36 -144 44 -156 24 -4 70 20 83 43 44 82 -55
169 -127 113z"/>
<path d="M3255 1158 c-29 -26 -37 -86 -15 -113 12 -15 63 -45 75 -45 12 0 62
30 74 44 7 8 13 32 14 52 2 73 -90 111 -148 62z"/>
</g>
</svg>
